<mxfile host="app.diagrams.net" agent="Mozilla/5.0 (Windows NT 10.0; Win64; x64) AppleWebKit/537.36 (KHTML, like Gecko) Chrome/135.0.0.0 Safari/537.36" version="26.2.12">
  <diagram name="페이지-1" id="kcjGKXjA2x2VX-K3j-nC">
    <mxGraphModel dx="1831" dy="893" grid="1" gridSize="10" guides="1" tooltips="1" connect="1" arrows="1" fold="1" page="1" pageScale="1" pageWidth="827" pageHeight="1169" math="0" shadow="0">
      <root>
        <mxCell id="0" />
        <mxCell id="1" parent="0" />
        <mxCell id="_Xc8MMI0X7SMjXPEbRPi-1" value="사용자" style="swimlane;whiteSpace=wrap;startSize=23;container=0;" parent="1" vertex="1">
          <mxGeometry x="34" y="128" width="146" height="712" as="geometry" />
        </mxCell>
        <mxCell id="_Xc8MMI0X7SMjXPEbRPi-4" value="" style="ellipse;shape=startState;fillColor=#000000;strokeColor=#ff0000;" parent="_Xc8MMI0X7SMjXPEbRPi-1" vertex="1">
          <mxGeometry x="58" y="32" width="30" height="30" as="geometry" />
        </mxCell>
        <mxCell id="_Xc8MMI0X7SMjXPEbRPi-5" value="" style="edgeStyle=elbowEdgeStyle;elbow=horizontal;verticalAlign=bottom;endArrow=open;endSize=8;strokeColor=#FF0000;endFill=1;rounded=0" parent="_Xc8MMI0X7SMjXPEbRPi-1" source="_Xc8MMI0X7SMjXPEbRPi-4" target="_Xc8MMI0X7SMjXPEbRPi-6" edge="1">
          <mxGeometry x="100" y="40" as="geometry">
            <mxPoint x="73" y="102" as="targetPoint" />
          </mxGeometry>
        </mxCell>
        <mxCell id="_Xc8MMI0X7SMjXPEbRPi-6" value="홈 화면 진입" style="rounded=1;" parent="_Xc8MMI0X7SMjXPEbRPi-1" vertex="1">
          <mxGeometry x="18" y="102" width="110" height="50" as="geometry" />
        </mxCell>
        <mxCell id="_Xc8MMI0X7SMjXPEbRPi-16" value="D-Day 앱 D-Day, 캘린더 관련 활동" style="text;html=1;align=left;verticalAlign=middle;whiteSpace=wrap;rounded=0;fontSize=24;" parent="1" vertex="1">
          <mxGeometry x="34" y="90" width="400" height="30" as="geometry" />
        </mxCell>
        <mxCell id="_Xc8MMI0X7SMjXPEbRPi-50" value="사용자가 캘린더에 있는&lt;div&gt;D-Day 추가 버튼을 눌렀는가?&lt;/div&gt;" style="text;html=1;align=left;verticalAlign=middle;whiteSpace=wrap;rounded=0;" parent="1" vertex="1">
          <mxGeometry x="540" y="453" width="156.75" height="30" as="geometry" />
        </mxCell>
        <mxCell id="fY-FLIDAOi6CCAPeDUMa-42" value="시스템" style="swimlane;whiteSpace=wrap;startSize=23;container=0;" vertex="1" parent="1">
          <mxGeometry x="180" y="128" width="590" height="712" as="geometry" />
        </mxCell>
        <mxCell id="_Xc8MMI0X7SMjXPEbRPi-12" value="&amp;lt;&amp;lt;D-Day 이동 버튼 클릭&amp;gt;&amp;gt;" style="text;html=1;align=center;verticalAlign=middle;whiteSpace=wrap;rounded=0;" parent="1" vertex="1">
          <mxGeometry x="363.75" y="361" width="155.5" height="30" as="geometry" />
        </mxCell>
        <mxCell id="_Xc8MMI0X7SMjXPEbRPi-8" value="" style="endArrow=open;strokeColor=#FF0000;endFill=1;rounded=0;entryX=0.5;entryY=0;entryDx=0;entryDy=0;exitX=0.5;exitY=1;exitDx=0;exitDy=0;" parent="1" source="_Xc8MMI0X7SMjXPEbRPi-20" target="_Xc8MMI0X7SMjXPEbRPi-21" edge="1">
          <mxGeometry relative="1" as="geometry">
            <mxPoint x="367.5" y="432" as="targetPoint" />
            <mxPoint x="367.5" y="362" as="sourcePoint" />
          </mxGeometry>
        </mxCell>
        <mxCell id="_Xc8MMI0X7SMjXPEbRPi-10" value="사용자가 어떤 탭 이동&lt;div&gt;버튼을 눌렀는가?&lt;/div&gt;" style="text;html=1;align=left;verticalAlign=middle;whiteSpace=wrap;rounded=0;" parent="1" vertex="1">
          <mxGeometry x="371.5" y="282" width="154.5" height="30" as="geometry" />
        </mxCell>
        <mxCell id="_Xc8MMI0X7SMjXPEbRPi-11" value="&amp;lt;&amp;lt;캘린더 이동 버튼 클릭&amp;gt;&amp;gt;" style="text;html=1;align=center;verticalAlign=middle;whiteSpace=wrap;rounded=0;" parent="1" vertex="1">
          <mxGeometry x="545.25" y="331" width="145.5" height="30" as="geometry" />
        </mxCell>
        <mxCell id="_Xc8MMI0X7SMjXPEbRPi-17" value="" style="edgeStyle=orthogonalEdgeStyle;rounded=0;orthogonalLoop=1;jettySize=auto;html=1;fontSize=12;startSize=8;endSize=8;strokeColor=#FF0000;endArrow=open;endFill=0;exitX=1;exitY=0.5;exitDx=0;exitDy=0;entryX=0.5;entryY=0;entryDx=0;entryDy=0;" parent="1" source="_Xc8MMI0X7SMjXPEbRPi-6" edge="1">
          <mxGeometry relative="1" as="geometry">
            <mxPoint x="367.5" y="312" as="targetPoint" />
            <mxPoint x="250.24999999999977" y="282" as="sourcePoint" />
          </mxGeometry>
        </mxCell>
        <mxCell id="_Xc8MMI0X7SMjXPEbRPi-20" value="" style="rhombus;whiteSpace=wrap;html=1;" parent="1" vertex="1">
          <mxGeometry x="350" y="312" width="35" height="35" as="geometry" />
        </mxCell>
        <mxCell id="_Xc8MMI0X7SMjXPEbRPi-21" value="D-Day 화면 출력" style="rounded=1;" parent="1" vertex="1">
          <mxGeometry x="312.5" y="392" width="110" height="50" as="geometry" />
        </mxCell>
        <mxCell id="_Xc8MMI0X7SMjXPEbRPi-19" value="" style="endArrow=open;strokeColor=#FF0000;endFill=1;rounded=0;entryX=0.5;entryY=0;entryDx=0;entryDy=0;exitX=1;exitY=0.5;exitDx=0;exitDy=0;edgeStyle=orthogonalEdgeStyle;" parent="1" source="_Xc8MMI0X7SMjXPEbRPi-20" target="_Xc8MMI0X7SMjXPEbRPi-15" edge="1">
          <mxGeometry relative="1" as="geometry">
            <mxPoint x="392.5" y="329.02" as="sourcePoint" />
            <mxPoint x="560" y="329.02" as="targetPoint" />
          </mxGeometry>
        </mxCell>
        <mxCell id="_Xc8MMI0X7SMjXPEbRPi-15" value="켈린더 화면 출력" style="rounded=1;" parent="1" vertex="1">
          <mxGeometry x="635.25" y="394.5" width="110" height="50" as="geometry" />
        </mxCell>
        <mxCell id="_Xc8MMI0X7SMjXPEbRPi-24" value="" style="rhombus;whiteSpace=wrap;html=1;" parent="1" vertex="1">
          <mxGeometry x="350" y="722" width="35" height="35" as="geometry" />
        </mxCell>
        <mxCell id="_Xc8MMI0X7SMjXPEbRPi-26" value="" style="rhombus;whiteSpace=wrap;html=1;" parent="1" vertex="1">
          <mxGeometry x="350" y="490" width="35" height="35" as="geometry" />
        </mxCell>
        <mxCell id="_Xc8MMI0X7SMjXPEbRPi-27" value="" style="edgeStyle=none;curved=1;rounded=0;orthogonalLoop=1;jettySize=auto;html=1;fontSize=12;startSize=8;endSize=8;strokeColor=#FF0000;endArrow=open;endFill=0;exitX=0.5;exitY=1;exitDx=0;exitDy=0;entryX=0.5;entryY=0;entryDx=0;entryDy=0;" parent="1" source="_Xc8MMI0X7SMjXPEbRPi-21" target="_Xc8MMI0X7SMjXPEbRPi-26" edge="1">
          <mxGeometry relative="1" as="geometry">
            <mxPoint x="377.25" y="290" as="sourcePoint" />
            <mxPoint x="377.5" y="322" as="targetPoint" />
          </mxGeometry>
        </mxCell>
        <mxCell id="_Xc8MMI0X7SMjXPEbRPi-29" value="D-Day 추가" style="rounded=1;" parent="1" vertex="1">
          <mxGeometry x="240" y="570" width="110" height="50" as="geometry" />
        </mxCell>
        <mxCell id="_Xc8MMI0X7SMjXPEbRPi-30" value="D-Day 수정" style="rounded=1;" parent="1" vertex="1">
          <mxGeometry x="371.5" y="570" width="110" height="50" as="geometry" />
        </mxCell>
        <mxCell id="_Xc8MMI0X7SMjXPEbRPi-31" value="D-Day 삭제" style="rounded=1;" parent="1" vertex="1">
          <mxGeometry x="504.75" y="570" width="110" height="50" as="geometry" />
        </mxCell>
        <mxCell id="_Xc8MMI0X7SMjXPEbRPi-32" value="" style="endArrow=open;strokeColor=#FF0000;endFill=1;rounded=0;entryX=0.5;entryY=0;entryDx=0;entryDy=0;edgeStyle=orthogonalEdgeStyle;exitX=0;exitY=1;exitDx=0;exitDy=0;" parent="1" source="_Xc8MMI0X7SMjXPEbRPi-26" target="_Xc8MMI0X7SMjXPEbRPi-29" edge="1">
          <mxGeometry relative="1" as="geometry">
            <mxPoint x="304.75" y="372" as="sourcePoint" />
            <mxPoint x="360.25" y="760" as="targetPoint" />
            <Array as="points">
              <mxPoint x="358.25" y="540" />
              <mxPoint x="295.25" y="540" />
            </Array>
          </mxGeometry>
        </mxCell>
        <mxCell id="_Xc8MMI0X7SMjXPEbRPi-33" value="" style="endArrow=open;strokeColor=#FF0000;endFill=1;rounded=0;entryX=0.5;entryY=0;entryDx=0;entryDy=0;edgeStyle=orthogonalEdgeStyle;exitX=1;exitY=1;exitDx=0;exitDy=0;" parent="1" source="_Xc8MMI0X7SMjXPEbRPi-26" target="_Xc8MMI0X7SMjXPEbRPi-30" edge="1">
          <mxGeometry relative="1" as="geometry">
            <mxPoint x="369.25" y="518" as="sourcePoint" />
            <mxPoint x="305.25" y="562" as="targetPoint" />
            <Array as="points">
              <mxPoint x="376.25" y="540" />
              <mxPoint x="426.25" y="540" />
            </Array>
          </mxGeometry>
        </mxCell>
        <mxCell id="_Xc8MMI0X7SMjXPEbRPi-34" value="" style="endArrow=open;strokeColor=#FF0000;endFill=1;rounded=0;entryX=0.5;entryY=0;entryDx=0;entryDy=0;edgeStyle=orthogonalEdgeStyle;exitX=1;exitY=0.5;exitDx=0;exitDy=0;" parent="1" source="_Xc8MMI0X7SMjXPEbRPi-26" target="_Xc8MMI0X7SMjXPEbRPi-31" edge="1">
          <mxGeometry relative="1" as="geometry">
            <mxPoint x="386.25" y="508" as="sourcePoint" />
            <mxPoint x="436.25" y="552" as="targetPoint" />
            <Array as="points">
              <mxPoint x="560.25" y="508" />
              <mxPoint x="560.25" y="508" />
            </Array>
          </mxGeometry>
        </mxCell>
        <mxCell id="_Xc8MMI0X7SMjXPEbRPi-35" value="" style="endArrow=open;strokeColor=#FF0000;endFill=1;rounded=0;edgeStyle=orthogonalEdgeStyle;exitX=0;exitY=0.5;exitDx=0;exitDy=0;entryX=0.5;entryY=0;entryDx=0;entryDy=0;" parent="1" source="_Xc8MMI0X7SMjXPEbRPi-26" target="_Xc8MMI0X7SMjXPEbRPi-24" edge="1">
          <mxGeometry relative="1" as="geometry">
            <mxPoint x="395.25" y="500" as="sourcePoint" />
            <mxPoint x="294.75" y="672" as="targetPoint" />
            <Array as="points">
              <mxPoint x="205.25" y="508" />
              <mxPoint x="205.25" y="670" />
              <mxPoint x="367.25" y="670" />
            </Array>
          </mxGeometry>
        </mxCell>
        <mxCell id="_Xc8MMI0X7SMjXPEbRPi-36" value="&amp;lt;&amp;lt;아무것도 누르지 않음&amp;gt;&amp;gt;" style="text;html=1;align=center;verticalAlign=middle;whiteSpace=wrap;rounded=0;" parent="1" vertex="1">
          <mxGeometry x="200" y="483" width="150" height="30" as="geometry" />
        </mxCell>
        <mxCell id="_Xc8MMI0X7SMjXPEbRPi-37" value="&amp;lt;&amp;lt;추가 버튼 클릭&amp;gt;&amp;gt;" style="text;html=1;align=center;verticalAlign=middle;whiteSpace=wrap;rounded=0;" parent="1" vertex="1">
          <mxGeometry x="250" y="517" width="109.75" height="30" as="geometry" />
        </mxCell>
        <mxCell id="_Xc8MMI0X7SMjXPEbRPi-38" value="&amp;lt;&amp;lt;수정 버튼 클릭&amp;gt;&amp;gt;" style="text;html=1;align=center;verticalAlign=middle;whiteSpace=wrap;rounded=0;" parent="1" vertex="1">
          <mxGeometry x="375.25" y="517" width="110.5" height="30" as="geometry" />
        </mxCell>
        <mxCell id="_Xc8MMI0X7SMjXPEbRPi-39" value="&amp;lt;&amp;lt;삭제 버튼 클릭&amp;gt;&amp;gt;" style="text;html=1;align=center;verticalAlign=middle;whiteSpace=wrap;rounded=0;" parent="1" vertex="1">
          <mxGeometry x="455.25" y="482" width="107.5" height="30" as="geometry" />
        </mxCell>
        <mxCell id="_Xc8MMI0X7SMjXPEbRPi-28" value="사용자가 추가, 수정,&amp;nbsp;&lt;span style=&quot;background-color: transparent; color: light-dark(rgb(0, 0, 0), rgb(255, 255, 255));&quot;&gt;삭제&lt;/span&gt;&lt;div&gt;&lt;span style=&quot;background-color: transparent; color: light-dark(rgb(0, 0, 0), rgb(255, 255, 255));&quot;&gt;버튼 중 어떤 버튼을 눌렀는가?&lt;/span&gt;&lt;/div&gt;" style="text;html=1;align=left;verticalAlign=middle;whiteSpace=wrap;rounded=0;" parent="1" vertex="1">
          <mxGeometry x="371.5" y="452" width="156.75" height="30" as="geometry" />
        </mxCell>
        <mxCell id="_Xc8MMI0X7SMjXPEbRPi-2" value="" style="ellipse;shape=endState;fillColor=#000000;strokeColor=#ff0000" parent="1" vertex="1">
          <mxGeometry x="352.5" y="790" width="30" height="30" as="geometry" />
        </mxCell>
        <mxCell id="_Xc8MMI0X7SMjXPEbRPi-3" value="" style="endArrow=open;strokeColor=#FF0000;endFill=1;rounded=0;entryX=0.5;entryY=0;entryDx=0;entryDy=0;exitX=0.5;exitY=1;exitDx=0;exitDy=0;" parent="1" source="_Xc8MMI0X7SMjXPEbRPi-24" target="_Xc8MMI0X7SMjXPEbRPi-2" edge="1">
          <mxGeometry relative="1" as="geometry">
            <mxPoint x="442" y="467" as="sourcePoint" />
            <mxPoint x="662" y="480" as="targetPoint" />
            <Array as="points" />
          </mxGeometry>
        </mxCell>
        <mxCell id="_Xc8MMI0X7SMjXPEbRPi-41" value="" style="endArrow=open;strokeColor=#FF0000;endFill=1;rounded=0;entryX=0.5;entryY=0;entryDx=0;entryDy=0;edgeStyle=orthogonalEdgeStyle;exitX=0.5;exitY=1;exitDx=0;exitDy=0;" parent="1" source="_Xc8MMI0X7SMjXPEbRPi-29" target="_Xc8MMI0X7SMjXPEbRPi-24" edge="1">
          <mxGeometry relative="1" as="geometry">
            <mxPoint x="395.25" y="510" as="sourcePoint" />
            <mxPoint x="570.25" y="562" as="targetPoint" />
            <Array as="points">
              <mxPoint x="295.25" y="670" />
              <mxPoint x="367.25" y="670" />
            </Array>
          </mxGeometry>
        </mxCell>
        <mxCell id="_Xc8MMI0X7SMjXPEbRPi-42" value="" style="endArrow=open;strokeColor=#FF0000;endFill=1;rounded=0;edgeStyle=orthogonalEdgeStyle;exitX=0.5;exitY=1;exitDx=0;exitDy=0;entryX=0.5;entryY=0;entryDx=0;entryDy=0;" parent="1" source="_Xc8MMI0X7SMjXPEbRPi-30" target="_Xc8MMI0X7SMjXPEbRPi-24" edge="1">
          <mxGeometry relative="1" as="geometry">
            <mxPoint x="305.25" y="612" as="sourcePoint" />
            <mxPoint x="435.25" y="710" as="targetPoint" />
            <Array as="points">
              <mxPoint x="426.25" y="670" />
              <mxPoint x="367.25" y="670" />
              <mxPoint x="367.25" y="722" />
            </Array>
          </mxGeometry>
        </mxCell>
        <mxCell id="_Xc8MMI0X7SMjXPEbRPi-43" value="" style="endArrow=open;strokeColor=#FF0000;endFill=1;rounded=0;edgeStyle=orthogonalEdgeStyle;exitX=0.5;exitY=1;exitDx=0;exitDy=0;entryX=0.5;entryY=0;entryDx=0;entryDy=0;" parent="1" source="_Xc8MMI0X7SMjXPEbRPi-31" target="_Xc8MMI0X7SMjXPEbRPi-24" edge="1">
          <mxGeometry relative="1" as="geometry">
            <mxPoint x="436.25" y="612" as="sourcePoint" />
            <mxPoint x="385.25" y="720" as="targetPoint" />
            <Array as="points">
              <mxPoint x="559.25" y="670" />
              <mxPoint x="367.25" y="670" />
              <mxPoint x="367.25" y="722" />
            </Array>
          </mxGeometry>
        </mxCell>
        <mxCell id="_Xc8MMI0X7SMjXPEbRPi-47" value="" style="rhombus;whiteSpace=wrap;html=1;" parent="1" vertex="1">
          <mxGeometry x="672.75" y="491" width="35" height="35" as="geometry" />
        </mxCell>
        <mxCell id="_Xc8MMI0X7SMjXPEbRPi-49" value="" style="edgeStyle=none;curved=1;rounded=0;orthogonalLoop=1;jettySize=auto;html=1;fontSize=12;startSize=8;endSize=8;strokeColor=#FF0000;endArrow=open;endFill=0;exitX=0.5;exitY=1;exitDx=0;exitDy=0;entryX=0.5;entryY=0;entryDx=0;entryDy=0;" parent="1" source="_Xc8MMI0X7SMjXPEbRPi-15" target="_Xc8MMI0X7SMjXPEbRPi-47" edge="1">
          <mxGeometry relative="1" as="geometry">
            <mxPoint x="695.25" y="443" as="sourcePoint" />
            <mxPoint x="695.25" y="483" as="targetPoint" />
          </mxGeometry>
        </mxCell>
        <mxCell id="_Xc8MMI0X7SMjXPEbRPi-51" value="" style="endArrow=open;strokeColor=#FF0000;endFill=1;rounded=0;entryX=1;entryY=0.5;entryDx=0;entryDy=0;exitX=0;exitY=0.5;exitDx=0;exitDy=0;edgeStyle=orthogonalEdgeStyle;" parent="1" source="_Xc8MMI0X7SMjXPEbRPi-47" target="_Xc8MMI0X7SMjXPEbRPi-24" edge="1">
          <mxGeometry relative="1" as="geometry">
            <mxPoint x="732.75" y="559.5" as="sourcePoint" />
            <mxPoint x="733.25" y="654.5" as="targetPoint" />
            <Array as="points">
              <mxPoint x="625.25" y="508" />
              <mxPoint x="625.25" y="740" />
            </Array>
          </mxGeometry>
        </mxCell>
        <mxCell id="_Xc8MMI0X7SMjXPEbRPi-53" value="&amp;lt;&amp;lt;아니오&amp;gt;&amp;gt;" style="text;html=1;align=center;verticalAlign=middle;whiteSpace=wrap;rounded=0;" parent="1" vertex="1">
          <mxGeometry x="600.75" y="483" width="90" height="30" as="geometry" />
        </mxCell>
        <mxCell id="_Xc8MMI0X7SMjXPEbRPi-54" value="&amp;lt;&amp;lt;예&amp;gt;&amp;gt;" style="text;html=1;align=center;verticalAlign=middle;whiteSpace=wrap;rounded=0;" parent="1" vertex="1">
          <mxGeometry x="672.75" y="518" width="90" height="30" as="geometry" />
        </mxCell>
        <mxCell id="_Xc8MMI0X7SMjXPEbRPi-55" value="D-Day 추가&#xa;(캘린더 화면에서)" style="rounded=1;" parent="1" vertex="1">
          <mxGeometry x="635.25" y="572.5" width="110" height="50" as="geometry" />
        </mxCell>
        <mxCell id="_Xc8MMI0X7SMjXPEbRPi-56" value="" style="endArrow=open;strokeColor=#FF0000;endFill=1;rounded=0;entryX=0.5;entryY=0;entryDx=0;entryDy=0;exitX=0.5;exitY=1;exitDx=0;exitDy=0;" parent="1" source="_Xc8MMI0X7SMjXPEbRPi-47" target="_Xc8MMI0X7SMjXPEbRPi-55" edge="1">
          <mxGeometry relative="1" as="geometry">
            <mxPoint x="630.25" y="543" as="sourcePoint" />
            <mxPoint x="648.75" y="555.5" as="targetPoint" />
            <Array as="points" />
          </mxGeometry>
        </mxCell>
        <mxCell id="_Xc8MMI0X7SMjXPEbRPi-57" value="" style="endArrow=open;strokeColor=#FF0000;endFill=1;rounded=0;entryX=1;entryY=0.5;entryDx=0;entryDy=0;edgeStyle=orthogonalEdgeStyle;exitX=0.5;exitY=1;exitDx=0;exitDy=0;" parent="1" source="_Xc8MMI0X7SMjXPEbRPi-55" target="_Xc8MMI0X7SMjXPEbRPi-24" edge="1">
          <mxGeometry relative="1" as="geometry">
            <mxPoint x="703.25" y="508" as="sourcePoint" />
            <mxPoint x="395.25" y="750" as="targetPoint" />
            <Array as="points">
              <mxPoint x="690.25" y="739" />
            </Array>
          </mxGeometry>
        </mxCell>
      </root>
    </mxGraphModel>
  </diagram>
</mxfile>
